# xmcd CD database file
#
# Track frame offsets:
#	150
#	22475
#	47228
#	65698
#	88949
#	107747
#	128760
#	149801
#	181900
#	197247
#	218831
#	246142
#	259996
#
# Disc length: 3758 seconds
#
# Revision: 3
# Processed by: cddbd v1.5.2PL0 Copyright (c) Steve Scherf et al.
# Submitted via: CDex 1.79
#
DISCID=d50eac0d
DTITLE=Neal Black and The Healers - Handful Of Rain
DYEAR=2007
DGENRE=Blues
TTITLE0=Roll Away Voodoo Sister
TTITLE1=Black Girl
TTITLE2=Fish Drip Jones
TTITLE3=God Down Here
TTITLE4=Cry Today
TTITLE5=Dirty Leg Fever
TTITLE6=Handful Of Rain
TTITLE7=Who They Really Are
TTITLE8=Black Mountain Rag
TTITLE9=Bad Rose Tatoo
TTITLE10=Rainbow Graveyard
TTITLE11=Evil
TTITLE12=Judgement Day
EXTD=YEAR: 2007
EXTT0=
EXTT1=
EXTT2=
EXTT3=
EXTT4=
EXTT5=
EXTT6=
EXTT7=
EXTT8=
EXTT9=
EXTT10=
EXTT11=
EXTT12=
PLAYORDER=
